<svg width="310" height="310" viewBox="0 0 310 310" fill="none" xmlns="http://www.w3.org/2000/svg">
<path d="M184.593 21.8614C213.225 -6.28632 259.895 -6.28632 288.526 21.8614C317.158 50.0091 317.158 95.8898 288.526 124.038C259.895 152.185 154.244 153.874 154.244 153.874C154.244 153.874 155.675 50.0091 184.593 21.8614Z" fill="url(#paint0_linear_23_1248)"/>
<path d="M21.2652 124.496C-7.08842 96.072 -7.08842 49.7414 21.2652 21.3177C49.6189 -7.10591 95.8354 -7.10591 124.189 21.3177C152.543 49.7414 154.244 154.625 154.244 154.625C154.244 154.625 49.6189 153.204 21.2652 124.496Z" fill="url(#paint1_linear_23_1248)"/>
<path d="M288.526 185.504C317.158 213.928 317.158 260.259 288.526 288.682C259.895 317.106 213.225 317.106 184.593 288.682C155.962 260.259 154.244 155.375 154.244 155.375C154.244 155.375 259.895 156.796 288.526 185.504Z" fill="url(#paint2_linear_23_1248)"/>
<path d="M124.189 288.682C95.8354 317.106 49.6189 317.106 21.2653 288.682C-7.0884 260.259 -7.0884 213.928 21.2653 185.504C49.6189 157.081 154.244 155.375 154.244 155.375C154.244 155.375 152.826 260.259 124.189 288.682Z" fill="url(#paint3_linear_23_1248)"/>
<path fill-rule="evenodd" clip-rule="evenodd" d="M149.789 203.262L84.6156 238.743C75.5053 243.613 65.3438 233.873 70.2493 224.481L105.99 159.781C107.742 156.65 107.742 152.824 105.99 149.693L70.2493 84.9925C65.3438 75.9484 75.1549 65.8607 84.6156 70.7306L149.789 106.211C152.943 107.951 156.797 107.951 159.951 106.211L225.125 70.7306C234.235 65.8607 244.397 75.6005 239.491 84.9925L203.751 149.693C201.999 152.824 201.999 156.65 203.751 159.781L239.491 224.481C244.397 233.525 234.586 243.613 225.125 238.743L159.951 203.262C156.797 201.523 152.943 201.523 149.789 203.262ZM234.803 82.3279C234.803 86.1626 231.672 89.2713 227.809 89.2713C223.946 89.2713 220.815 86.1626 220.815 82.3279C220.815 78.4932 223.946 75.3846 227.809 75.3846C231.672 75.3846 234.803 78.4932 234.803 82.3279ZM227.809 234.089C231.672 234.089 234.803 230.981 234.803 227.146C234.803 223.311 231.672 220.203 227.809 220.203C223.946 220.203 220.815 223.311 220.815 227.146C220.815 230.981 223.946 234.089 227.809 234.089ZM88.9258 82.3279C88.9258 86.1626 85.7944 89.2713 81.9316 89.2713C78.0689 89.2713 74.9375 86.1626 74.9375 82.3279C74.9375 78.4932 78.0689 75.3846 81.9316 75.3846C85.7944 75.3846 88.9258 78.4932 88.9258 82.3279ZM81.9316 234.089C85.7944 234.089 88.9258 230.981 88.9258 227.146C88.9258 223.311 85.7944 220.203 81.9316 220.203C78.0689 220.203 74.9375 223.311 74.9375 227.146C74.9375 230.981 78.0689 234.089 81.9316 234.089Z" fill="white"/>
<defs>
<linearGradient id="paint0_linear_23_1248" x1="287.607" y1="18.5613" x2="-3.55591" y2="306.898" gradientUnits="userSpaceOnUse">
<stop stop-color="#1660FF"/>
<stop offset="1" stop-color="#3575FF"/>
</linearGradient>
<linearGradient id="paint1_linear_23_1248" x1="287.607" y1="18.5613" x2="-3.55591" y2="306.898" gradientUnits="userSpaceOnUse">
<stop stop-color="#1660FF"/>
<stop offset="1" stop-color="#3575FF"/>
</linearGradient>
<linearGradient id="paint2_linear_23_1248" x1="287.607" y1="18.5613" x2="-3.55591" y2="306.898" gradientUnits="userSpaceOnUse">
<stop stop-color="#1660FF"/>
<stop offset="1" stop-color="#3575FF"/>
</linearGradient>
<linearGradient id="paint3_linear_23_1248" x1="287.607" y1="18.5613" x2="-3.55591" y2="306.898" gradientUnits="userSpaceOnUse">
<stop stop-color="#1660FF"/>
<stop offset="1" stop-color="#3575FF"/>
</linearGradient>
</defs>
</svg>
