<svg width="1332" height="310" viewBox="0 0 1332 310" fill="none" xmlns="http://www.w3.org/2000/svg">
<path d="M184.593 21.8614C213.225 -6.28632 259.895 -6.28632 288.526 21.8614C317.158 50.0091 317.158 95.8898 288.526 124.038C259.895 152.185 154.244 153.874 154.244 153.874C154.244 153.874 155.675 50.0091 184.593 21.8614Z" fill="url(#paint0_linear_23_26)"/>
<path d="M21.2652 124.496C-7.08842 96.072 -7.08842 49.7414 21.2652 21.3177C49.6189 -7.10591 95.8354 -7.10591 124.189 21.3177C152.543 49.7414 154.244 154.625 154.244 154.625C154.244 154.625 49.6189 153.204 21.2652 124.496Z" fill="url(#paint1_linear_23_26)"/>
<path d="M288.526 185.504C317.158 213.928 317.158 260.259 288.526 288.682C259.895 317.106 213.225 317.106 184.593 288.682C155.962 260.259 154.244 155.375 154.244 155.375C154.244 155.375 259.895 156.796 288.526 185.504Z" fill="url(#paint2_linear_23_26)"/>
<path d="M124.189 288.682C95.8354 317.106 49.6189 317.106 21.2653 288.682C-7.0884 260.259 -7.0884 213.928 21.2653 185.504C49.6189 157.081 154.244 155.375 154.244 155.375C154.244 155.375 152.826 260.259 124.189 288.682Z" fill="url(#paint3_linear_23_26)"/>
<path fill-rule="evenodd" clip-rule="evenodd" d="M149.789 203.262L84.6156 238.743C75.5053 243.613 65.3438 233.873 70.2493 224.481L105.99 159.781C107.742 156.65 107.742 152.824 105.99 149.693L70.2493 84.9925C65.3438 75.9484 75.1549 65.8607 84.6156 70.7306L149.789 106.211C152.943 107.951 156.797 107.951 159.951 106.211L225.125 70.7306C234.235 65.8607 244.397 75.6005 239.491 84.9925L203.751 149.693C201.999 152.824 201.999 156.65 203.751 159.781L239.491 224.481C244.397 233.525 234.586 243.613 225.125 238.743L159.951 203.262C156.797 201.523 152.943 201.523 149.789 203.262ZM234.803 82.3279C234.803 86.1626 231.672 89.2713 227.809 89.2713C223.946 89.2713 220.815 86.1626 220.815 82.3279C220.815 78.4932 223.946 75.3846 227.809 75.3846C231.672 75.3846 234.803 78.4932 234.803 82.3279ZM227.809 234.089C231.672 234.089 234.803 230.981 234.803 227.146C234.803 223.311 231.672 220.203 227.809 220.203C223.946 220.203 220.815 223.311 220.815 227.146C220.815 230.981 223.946 234.089 227.809 234.089ZM88.9258 82.3279C88.9258 86.1626 85.7944 89.2713 81.9316 89.2713C78.0689 89.2713 74.9375 86.1626 74.9375 82.3279C74.9375 78.4932 78.0689 75.3846 81.9316 75.3846C85.7944 75.3846 88.9258 78.4932 88.9258 82.3279ZM81.9316 234.089C85.7944 234.089 88.9258 230.981 88.9258 227.146C88.9258 223.311 85.7944 220.203 81.9316 220.203C78.0689 220.203 74.9375 223.311 74.9375 227.146C74.9375 230.981 78.0689 234.089 81.9316 234.089Z" fill="white"/>
<path d="M570.259 153.647C570.259 177.459 565.633 198.024 556.382 214.8C547.131 231.577 534.343 244.565 517.745 253.494C501.148 262.424 482.373 267.024 460.878 267.024H376C372.686 267.024 370 264.337 370 261.024V49.5178C370 46.2041 372.686 43.5178 376 43.5178H451.355C489.176 43.5178 518.561 52.9884 539.24 71.9296C559.919 90.8707 570.259 118.2 570.259 153.377V153.647ZM522.915 153.647C522.915 129.565 516.657 111.435 504.141 98.7178C491.624 86.0001 473.666 79.7766 450.539 79.7766H417.344V230.765H457.069C470.673 230.765 482.101 227.518 492.169 221.294C502.236 215.071 509.582 206.141 515.024 194.506C520.466 182.871 523.187 169.341 523.187 153.377L522.915 153.647Z" fill="#0C1330"/>
<path d="M639.614 182.059V260.753C639.614 264.067 636.928 266.753 633.614 266.753H598.542C595.229 266.753 592.542 264.067 592.542 260.753V49.5179C592.542 46.2042 595.229 43.5179 598.542 43.5179H704.644C731.309 43.5179 751.987 49.2003 766.68 60.8356C781.373 72.4709 788.447 88.7062 788.447 110.353C788.447 126.047 784.094 139.577 775.115 150.941C766.136 162.306 754.164 169.883 738.927 173.4L793.621 258.038C796.201 262.03 793.336 267.294 788.582 267.294H747.718C745.636 267.294 743.704 266.216 742.611 264.444L692.128 182.6H639.07L639.614 182.059ZM741.376 111.977C741.376 101.424 737.839 93.3062 731.036 87.8944C724.234 82.4826 713.895 79.7767 700.018 79.7767H639.886V145.8H701.379C714.439 145.8 724.506 142.824 731.309 136.871C738.111 130.918 741.648 122.53 741.648 111.977H741.376Z" fill="#0C1330"/>
<path d="M1026.55 154.188C1026.55 177.459 1021.93 197.753 1012.41 215.071C1002.88 232.388 989.822 245.918 972.681 255.659C955.539 265.4 935.676 270 912.549 270C889.421 270 868.742 265.4 851.872 255.929C835.003 246.459 821.942 233.2 812.964 215.882C803.985 198.565 799.359 178 799.359 153.918C799.359 129.835 803.985 109.541 812.964 92.4941C821.942 75.4471 835.003 62.4588 851.872 53.5294C868.742 44.6 889.149 40 912.821 40C936.492 40 956.899 44.6 973.769 53.8C990.639 63 1003.7 75.9882 1012.68 93.0353C1021.66 110.082 1026.28 130.376 1026.28 154.188H1026.55ZM978.667 154.188C978.667 130.106 972.953 111.165 961.525 97.6353C950.097 84.1059 934.044 77.0706 913.093 77.0706C892.142 77.0706 875.816 83.8353 864.389 97.3647C852.961 110.894 847.247 129.835 847.247 154.188C847.247 170.424 849.968 184.494 855.138 196.4C860.307 208.306 867.926 217.235 877.721 223.729C887.516 230.224 899.216 233.2 912.821 233.2C933.772 233.2 950.097 226.435 961.525 212.635C972.953 198.835 978.667 179.353 978.667 154.188Z" fill="#0C1330"/>
<path d="M1326 43.5266C1329.31 43.5266 1332 46.2129 1332 49.5266V261.033C1332 264.346 1329.31 267.033 1326 267.033H1290.93C1287.61 267.033 1284.93 264.346 1284.93 261.033V49.5266C1284.93 46.2129 1287.61 43.5266 1290.93 43.5266H1326Z" fill="#0C1330"/>
<path d="M1049.14 261.024C1049.14 264.338 1051.82 267.024 1055.14 267.024H1089.94C1093.25 267.024 1095.94 264.338 1095.94 261.024V112.789L1191.85 264.234C1192.95 265.971 1194.86 267.024 1196.92 267.024H1243.94C1247.25 267.024 1249.94 264.338 1249.94 261.024V49.5179C1249.94 46.2042 1247.25 43.5179 1243.94 43.5179H1208.6C1205.28 43.5179 1202.6 46.2042 1202.6 49.5179V203.436L1103.42 46.3152C1102.32 44.5739 1100.4 43.5179 1098.34 43.5179H1055.14C1051.82 43.5179 1049.14 46.2042 1049.14 49.5179V261.024Z" fill="#0C1330"/>
<defs>
<linearGradient id="paint0_linear_23_26" x1="287.607" y1="18.5613" x2="-3.55591" y2="306.898" gradientUnits="userSpaceOnUse">
<stop stop-color="#1660FF"/>
<stop offset="1" stop-color="#3575FF"/>
</linearGradient>
<linearGradient id="paint1_linear_23_26" x1="287.607" y1="18.5613" x2="-3.55591" y2="306.898" gradientUnits="userSpaceOnUse">
<stop stop-color="#1660FF"/>
<stop offset="1" stop-color="#3575FF"/>
</linearGradient>
<linearGradient id="paint2_linear_23_26" x1="287.607" y1="18.5613" x2="-3.55591" y2="306.898" gradientUnits="userSpaceOnUse">
<stop stop-color="#1660FF"/>
<stop offset="1" stop-color="#3575FF"/>
</linearGradient>
<linearGradient id="paint3_linear_23_26" x1="287.607" y1="18.5613" x2="-3.55591" y2="306.898" gradientUnits="userSpaceOnUse">
<stop stop-color="#1660FF"/>
<stop offset="1" stop-color="#3575FF"/>
</linearGradient>
</defs>
</svg>
