<svg width="24" height="24" viewBox="0 0 24 24" fill="none" xmlns="http://www.w3.org/2000/svg">
<path d="M11.1 4.925C11.295 4.925 11.4563 4.86125 11.5837 4.73375C11.7113 4.60625 11.775 4.445 11.775 4.25C11.775 4.055 11.7113 3.89375 11.5837 3.76625C11.4563 3.63875 11.295 3.575 11.1 3.575C10.905 3.575 10.7438 3.63875 10.6163 3.76625C10.4888 3.89375 10.425 4.055 10.425 4.25C10.425 4.445 10.4888 4.60625 10.6163 4.73375C10.7438 4.86125 10.905 4.925 11.1 4.925ZM16.5 21.8C15.255 21.8 14.1938 21.3612 13.3162 20.4837C12.4388 19.6063 12 18.545 12 17.3C12 16.055 12.4388 14.9938 13.3162 14.1163C14.1938 13.2388 15.255 12.8 16.5 12.8C17.745 12.8 18.8062 13.2388 19.6838 14.1163C20.5613 14.9938 21 16.055 21 17.3C21 18.545 20.5613 19.6063 19.6838 20.4837C18.8062 21.3612 17.745 21.8 16.5 21.8ZM4.8 20C4.305 20 3.88125 19.8237 3.52875 19.4713C3.17625 19.1187 3 18.695 3 18.2V5.6C3 5.105 3.17625 4.68125 3.52875 4.32875C3.88125 3.97625 4.305 3.8 4.8 3.8H8.58C8.775 3.26 9.10125 2.825 9.55875 2.495C10.0162 2.165 10.53 2 11.1 2C11.67 2 12.1838 2.165 12.6413 2.495C13.0988 2.825 13.425 3.26 13.62 3.8H17.4C17.895 3.8 18.3188 3.97625 18.6713 4.32875C19.0238 4.68125 19.2 5.105 19.2 5.6V10.505C19.2 10.775 19.0875 10.985 18.8625 11.135C18.6375 11.285 18.3975 11.315 18.1425 11.225C17.8875 11.15 17.6212 11.0938 17.3438 11.0562C17.0662 11.0188 16.785 11 16.5 11C16.335 11 16.1812 11.0037 16.0387 11.0112C15.8962 11.0187 15.75 11.0375 15.6 11.0675C15.525 11.0525 15.435 11.0375 15.33 11.0225C15.255 11.0225 15.1612 11.0187 15.0487 11.0112C14.9362 11.0037 14.82 11 14.7 11H7.5C7.245 11 7.03125 11.0863 6.85875 11.2587C6.68625 11.4312 6.6 11.645 6.6 11.9C6.6 12.155 6.68625 12.3688 6.85875 12.5413C7.03125 12.7137 7.245 12.8 7.5 12.8H12.1125C11.8425 13.055 11.5988 13.3325 11.3812 13.6325C11.1637 13.9325 10.9725 14.255 10.8075 14.6H7.5C7.245 14.6 7.03125 14.6862 6.85875 14.8588C6.68625 15.0312 6.6 15.245 6.6 15.5C6.6 15.755 6.68625 15.9688 6.85875 16.1413C7.03125 16.3138 7.245 16.4 7.5 16.4H10.2675C10.2375 16.55 10.2187 16.6963 10.2112 16.8388C10.2037 16.9813 10.2 17.135 10.2 17.3C10.2 17.6 10.215 17.885 10.245 18.155C10.275 18.425 10.3275 18.6875 10.4025 18.9425C10.4775 19.1975 10.44 19.4375 10.29 19.6625C10.14 19.8875 9.9375 20 9.6825 20H4.8ZM16.05 17.75V19.55C16.05 19.67 16.095 19.775 16.185 19.865C16.275 19.955 16.38 20 16.5 20C16.62 20 16.725 19.955 16.815 19.865C16.905 19.775 16.95 19.67 16.95 19.55V17.75H18.75C18.87 17.75 18.975 17.705 19.065 17.615C19.155 17.525 19.2 17.42 19.2 17.3C19.2 17.18 19.155 17.075 19.065 16.985C18.975 16.895 18.87 16.85 18.75 16.85H16.95V15.05C16.95 14.93 16.905 14.825 16.815 14.735C16.725 14.645 16.62 14.6 16.5 14.6C16.38 14.6 16.275 14.645 16.185 14.735C16.095 14.825 16.05 14.93 16.05 15.05V16.85H14.25C14.13 16.85 14.025 16.895 13.935 16.985C13.845 17.075 13.8 17.18 13.8 17.3C13.8 17.42 13.845 17.525 13.935 17.615C14.025 17.705 14.13 17.75 14.25 17.75H16.05ZM7.5 9.2H14.7C14.955 9.2 15.1687 9.11375 15.3413 8.94125C15.5138 8.76875 15.6 8.555 15.6 8.3C15.6 8.045 15.5138 7.83125 15.3413 7.65875C15.1687 7.48625 14.955 7.4 14.7 7.4H7.5C7.245 7.4 7.03125 7.48625 6.85875 7.65875C6.68625 7.83125 6.6 8.045 6.6 8.3C6.6 8.555 6.68625 8.76875 6.85875 8.94125C7.03125 9.11375 7.245 9.2 7.5 9.2Z" fill="#1C1B1F"/>
</svg>
