<svg width="24" height="24" viewBox="0 0 24 24" fill="none" xmlns="http://www.w3.org/2000/svg">
<path d="M5 22C4.45 22 3.97917 21.8042 3.5875 21.4125C3.19583 21.0208 3 20.55 3 20V6C3 5.45 3.19583 4.97917 3.5875 4.5875C3.97917 4.19583 4.45 4 5 4H9.2C9.41667 3.4 9.77917 2.91667 10.2875 2.55C10.7958 2.18333 11.3667 2 12 2C12.6333 2 13.2042 2.18333 13.7125 2.55C14.2208 2.91667 14.5833 3.4 14.8 4H19C19.55 4 20.0208 4.19583 20.4125 4.5875C20.8042 4.97917 21 5.45 21 6V20C21 20.55 20.8042 21.0208 20.4125 21.4125C20.0208 21.8042 19.55 22 19 22H5ZM8 18H13C13.2833 18 13.5208 17.9042 13.7125 17.7125C13.9042 17.5208 14 17.2833 14 17C14 16.7167 13.9042 16.4792 13.7125 16.2875C13.5208 16.0958 13.2833 16 13 16H8C7.71667 16 7.47917 16.0958 7.2875 16.2875C7.09583 16.4792 7 16.7167 7 17C7 17.2833 7.09583 17.5208 7.2875 17.7125C7.47917 17.9042 7.71667 18 8 18ZM8 14H16C16.2833 14 16.5208 13.9042 16.7125 13.7125C16.9042 13.5208 17 13.2833 17 13C17 12.7167 16.9042 12.4792 16.7125 12.2875C16.5208 12.0958 16.2833 12 16 12H8C7.71667 12 7.47917 12.0958 7.2875 12.2875C7.09583 12.4792 7 12.7167 7 13C7 13.2833 7.09583 13.5208 7.2875 13.7125C7.47917 13.9042 7.71667 14 8 14ZM8 10H16C16.2833 10 16.5208 9.90417 16.7125 9.7125C16.9042 9.52083 17 9.28333 17 9C17 8.71667 16.9042 8.47917 16.7125 8.2875C16.5208 8.09583 16.2833 8 16 8H8C7.71667 8 7.47917 8.09583 7.2875 8.2875C7.09583 8.47917 7 8.71667 7 9C7 9.28333 7.09583 9.52083 7.2875 9.7125C7.47917 9.90417 7.71667 10 8 10ZM12 5.25C12.2167 5.25 12.3958 5.17917 12.5375 5.0375C12.6792 4.89583 12.75 4.71667 12.75 4.5C12.75 4.28333 12.6792 4.10417 12.5375 3.9625C12.3958 3.82083 12.2167 3.75 12 3.75C11.7833 3.75 11.6042 3.82083 11.4625 3.9625C11.3208 4.10417 11.25 4.28333 11.25 4.5C11.25 4.71667 11.3208 4.89583 11.4625 5.0375C11.6042 5.17917 11.7833 5.25 12 5.25Z" fill="#1C1B1F"/>
</svg>
