<svg width="24" height="24" viewBox="0 0 24 24" fill="none" xmlns="http://www.w3.org/2000/svg">
<path d="M4.19995 18.5571V9.81429C4.19995 9.50667 4.26876 9.21524 4.40638 8.94C4.544 8.66476 4.73424 8.4381 4.97709 8.26L10.8057 3.88857C11.1457 3.62952 11.5342 3.5 11.9714 3.5C12.4085 3.5 12.7971 3.62952 13.1371 3.88857L18.9657 8.26C19.2085 8.4381 19.3988 8.66476 19.5364 8.94C19.674 9.21524 19.7428 9.50667 19.7428 9.81429V18.5571C19.7428 19.0914 19.5526 19.5488 19.1721 19.9293C18.7916 20.3098 18.3342 20.5 17.8 20.5H14.8857C14.6104 20.5 14.3797 20.4069 14.1935 20.2207C14.0073 20.0345 13.9142 19.8038 13.9142 19.5286V14.6714C13.9142 14.3962 13.8211 14.1655 13.635 13.9793C13.4488 13.7931 13.218 13.7 12.9428 13.7H11C10.7247 13.7 10.494 13.7931 10.3078 13.9793C10.1216 14.1655 10.0285 14.3962 10.0285 14.6714V19.5286C10.0285 19.8038 9.93543 20.0345 9.74924 20.2207C9.56305 20.4069 9.33233 20.5 9.05709 20.5H6.14281C5.60852 20.5 5.15114 20.3098 4.77067 19.9293C4.39019 19.5488 4.19995 19.0914 4.19995 18.5571Z" fill="#1C1B1F"/>
</svg>
