<svg width="24" height="24" viewBox="0 0 24 24" fill="none" xmlns="http://www.w3.org/2000/svg">
<path d="M12 12C10.8313 12 9.83073 11.5839 8.99844 10.7516C8.16615 9.91927 7.75 8.91875 7.75 7.75C7.75 6.58125 8.16615 5.58073 8.99844 4.74844C9.83073 3.91615 10.8313 3.5 12 3.5C13.1687 3.5 14.1693 3.91615 15.0016 4.74844C15.8339 5.58073 16.25 6.58125 16.25 7.75C16.25 8.91875 15.8339 9.91927 15.0016 10.7516C14.1693 11.5839 13.1687 12 12 12ZM3.5 18.375V17.525C3.5 16.9229 3.65495 16.3695 3.96484 15.8648C4.27474 15.3602 4.68646 14.975 5.2 14.7094C6.29792 14.1604 7.41354 13.7487 8.54688 13.4742C9.68021 13.1997 10.8313 13.0625 12 13.0625C13.1687 13.0625 14.3198 13.1997 15.4531 13.4742C16.5865 13.7487 17.7021 14.1604 18.8 14.7094C19.3135 14.975 19.7253 15.3602 20.0352 15.8648C20.3451 16.3695 20.5 16.9229 20.5 17.525V18.375C20.5 18.9594 20.2919 19.4596 19.8758 19.8758C19.4596 20.2919 18.9594 20.5 18.375 20.5H5.625C5.04062 20.5 4.54036 20.2919 4.12422 19.8758C3.70807 19.4596 3.5 18.9594 3.5 18.375Z" fill="#1C1B1F"/>
</svg>
