<svg width="24" height="24" viewBox="0 0 24 24" fill="none" xmlns="http://www.w3.org/2000/svg">
<path d="M9.86862 10.3686C8.71793 10.3686 7.73288 9.9589 6.91345 9.13948C6.09402 8.32005 5.68431 7.33499 5.68431 6.18431C5.68431 5.03362 6.09402 4.04857 6.91345 3.22914C7.73288 2.40971 8.71793 2 9.86862 2C11.0193 2 12.0044 2.40971 12.8238 3.22914C13.6432 4.04857 14.0529 5.03362 14.0529 6.18431C14.0529 7.33499 13.6432 8.32005 12.8238 9.13948C12.0044 9.9589 11.0193 10.3686 9.86862 10.3686ZM20.7478 21.6663L18.1326 19.0511C17.7665 19.2603 17.3742 19.4346 16.9558 19.5741C16.5374 19.7136 16.0928 19.7833 15.622 19.7833C14.3144 19.7833 13.203 19.3257 12.2877 18.4103C11.3724 17.495 10.9147 16.3836 10.9147 15.076C10.9147 13.7684 11.3724 12.6569 12.2877 11.7416C13.203 10.8263 14.3144 10.3686 15.622 10.3686C16.9296 10.3686 18.0411 10.8263 18.9564 11.7416C19.8717 12.6569 20.3294 13.7684 20.3294 15.076C20.3294 15.5467 20.2597 15.9913 20.1202 16.4097C19.9807 16.8281 19.8064 17.2204 19.5971 17.5865L22.2123 20.2017C22.4041 20.3935 22.5 20.6376 22.5 20.934C22.5 21.2304 22.4041 21.4745 22.2123 21.6663C22.0205 21.858 21.7765 21.9539 21.4801 21.9539C21.1837 21.9539 20.9396 21.858 20.7478 21.6663ZM15.622 17.6912C16.3543 17.6912 16.9732 17.4384 17.4788 16.9328C17.9844 16.4271 18.2372 15.8082 18.2372 15.076C18.2372 14.3437 17.9844 13.7248 17.4788 13.2192C16.9732 12.7136 16.3543 12.4608 15.622 12.4608C14.8898 12.4608 14.2709 12.7136 13.7653 13.2192C13.2597 13.7248 13.0068 14.3437 13.0068 15.076C13.0068 15.8082 13.2597 16.4271 13.7653 16.9328C14.2709 17.4384 14.8898 17.6912 15.622 17.6912ZM9.89477 11.4147C9.16252 12.4956 8.79639 13.7161 8.79639 15.076C8.79639 16.4359 9.16252 17.6563 9.89477 18.7372H3.59215C3.01681 18.7372 2.52428 18.5324 2.11457 18.1227C1.70486 17.713 1.5 17.2204 1.5 16.6451V15.8344C1.5 15.2416 1.64819 14.6924 1.94458 14.1868C2.24097 13.6812 2.65068 13.2976 3.17372 13.0361C4.06289 12.5828 5.06538 12.1993 6.1812 11.8854C7.29701 11.5716 8.53487 11.4147 9.89477 11.4147Z" fill="#1C1B1F"/>
</svg>
