<svg width="24" height="24" viewBox="0 0 24 24" fill="none" xmlns="http://www.w3.org/2000/svg">
<path d="M7.7 11.55C7.96917 11.55 8.19479 11.459 8.37687 11.2769C8.55896 11.0948 8.65 10.8692 8.65 10.6C8.65 10.3308 8.55896 10.1052 8.37687 9.92313C8.19479 9.74104 7.96917 9.65 7.7 9.65C7.43083 9.65 7.20521 9.74104 7.02312 9.92313C6.84104 10.1052 6.75 10.3308 6.75 10.6C6.75 10.8692 6.84104 11.0948 7.02312 11.2769C7.20521 11.459 7.43083 11.55 7.7 11.55ZM11.5 11.55C11.7692 11.55 11.9948 11.459 12.1769 11.2769C12.359 11.0948 12.45 10.8692 12.45 10.6C12.45 10.3308 12.359 10.1052 12.1769 9.92313C11.9948 9.74104 11.7692 9.65 11.5 9.65C11.2308 9.65 11.0052 9.74104 10.8231 9.92313C10.641 10.1052 10.55 10.3308 10.55 10.6C10.55 10.8692 10.641 11.0948 10.8231 11.2769C11.0052 11.459 11.2308 11.55 11.5 11.55ZM15.3 11.55C15.5692 11.55 15.7948 11.459 15.9769 11.2769C16.159 11.0948 16.25 10.8692 16.25 10.6C16.25 10.3308 16.159 10.1052 15.9769 9.92313C15.7948 9.74104 15.5692 9.65 15.3 9.65C15.0308 9.65 14.8052 9.74104 14.6231 9.92313C14.441 10.1052 14.35 10.3308 14.35 10.6C14.35 10.8692 14.441 11.0948 14.6231 11.2769C14.8052 11.459 15.0308 11.55 15.3 11.55ZM5.8 18.2L3.615 20.385C3.31417 20.6858 2.96979 20.7531 2.58188 20.5869C2.19396 20.4206 2 20.1238 2 19.6963V4.9C2 4.3775 2.18604 3.93021 2.55813 3.55813C2.93021 3.18604 3.3775 3 3.9 3H19.1C19.6225 3 20.0698 3.18604 20.4419 3.55813C20.814 3.93021 21 4.3775 21 4.9V16.3C21 16.8225 20.814 17.2698 20.4419 17.6419C20.0698 18.014 19.6225 18.2 19.1 18.2H5.8Z" fill="#1C1B1F"/>
</svg>
